<svg height="24" viewBox="0 0 24 24" width="24" xmlns="http://www.w3.org/2000/svg" role="presentation" aria-hidden="true" focusable="false" style="height: 18px; width: 18px; display: inline-block; fill: rgb(72, 72, 72);"><path d="m12 0c-6.63 0-12 5.37-12 12s5.37 12 12 12 12-5.37 12-12-5.37-12-12-12zm-4.19 14.05c.52.45.58 1.24.14 1.76-.25.29-.6.44-.95.44-.29 0-.58-.1-.81-.3l-3.5-3c-.28-.24-.44-.58-.44-.95s.16-.71.44-.95l3.5-3c .52-.45 1.31-.39 1.76.14.45.52.39 1.31-.14 1.76l-2.39 2.05zm6.88-6.69-3 10c-.16.54-.66.89-1.2.89-.12 0-.24-.02-.36-.05-.66-.2-1.04-.9-.84-1.56l3-10c .2-.66.9-1.04 1.56-.84s1.04.9.84 1.56zm3.12 8.59c-.52.45-1.31.39-1.76-.14s-.39-1.31.14-1.76l2.39-2.05-2.39-2.05c-.52-.45-.58-1.24-.14-1.76s1.24-.58 1.76-.14l3.5 3c .58.5.58 1.4 0 1.9z" fill="#484848"></path></svg>